<svg width="30" height="31" viewBox="0 0 30 31" fill="none" xmlns="http://www.w3.org/2000/svg">
<path d="M5.625 26.75C5.625 26.75 3.75 26.75 3.75 24.875C3.75 23 5.625 17.375 15 17.375C24.375 17.375 26.25 23 26.25 24.875C26.25 26.75 24.375 26.75 24.375 26.75H5.625ZM15 15.5C16.4918 15.5 17.9226 14.9074 18.9775 13.8525C20.0324 12.7976 20.625 11.3668 20.625 9.875C20.625 8.38316 20.0324 6.95242 18.9775 5.89752C17.9226 4.84263 16.4918 4.25 15 4.25C13.5082 4.25 12.0774 4.84263 11.0225 5.89752C9.96763 6.95242 9.375 8.38316 9.375 9.875C9.375 11.3668 9.96763 12.7976 11.0225 13.8525C12.0774 14.9074 13.5082 15.5 15 15.5Z" fill="#FFFEFE"/>
</svg>
