<svg width="30" height="31" viewBox="0 0 30 31" fill="none" xmlns="http://www.w3.org/2000/svg">
<path d="M18.5294 0.5H23.8235V5.79412H18.5294V0.5ZM18.5294 6.67647H23.8234V11.9706H18.5294V6.67647ZM24.7058 0.500088H29.9999V5.79412H24.7058V0.500088ZM24.7058 6.67647H29.9999V11.9706H24.7058V6.67647ZM6.17647 0.500088H11.4706V5.79412H6.17647V0.500088ZM6.17647 6.67647H11.4706V11.9706H6.17647V6.67647ZM12.3529 0.5H17.6471V5.79412H12.3529V0.5ZM12.3529 6.67647H17.6471V11.9706H12.3529V6.67647ZM18.5294 12.8529H23.8235V18.1471H18.5294V12.8529ZM6.17647 12.8529H11.4706V18.1471H6.17647V12.8529ZM6.17647 19.0294H11.4706V24.3235H6.17647V19.0294ZM6.17647 25.2059H11.4706V30.5H6.17647V25.2059ZM12.3529 12.8529H17.6471V18.1471H12.3529V12.8529ZM12.3529 19.0294H17.6471V24.3235H12.3529V19.0294ZM0 0.500088H5.29412V5.79412H0V0.500088ZM0 6.67647H5.29412V11.9706H0V6.67647ZM0 12.8529H5.29412V18.1471H0V12.8529ZM0 19.0294H5.29412V24.3235H0V19.0294ZM0 25.2059H5.29412V30.5H0V25.2059ZM12.3529 25.2059H17.6471V30.5H12.3529V25.2059ZM13.2353 26.0882V29.6176H16.7647V26.0882H13.2353ZM24.7059 12.8529H30V18.1471H24.7059V12.8529ZM25.5882 13.7353V17.2647H29.1176V13.7353H25.5882ZM18.5294 19.0294H23.8235V24.3235H18.5294V19.0294ZM19.4118 19.9118V23.4412H22.9412V19.9118H19.4118ZM24.7059 19.0294H30V24.3235H24.7059V19.0294ZM25.5882 19.9118V23.4412H29.1176V19.9118H25.5882ZM18.5294 25.2059H23.8235V30.5H18.5294V25.2059ZM19.4118 26.0882V29.6176H22.9412V26.0882H19.4118ZM24.7059 25.2059H30V30.5H24.7059V25.2059ZM25.5882 26.0882V29.6176H29.1176V26.0882H25.5882Z" fill="white"/>
</svg>
