<svg width="30" height="31" viewBox="0 0 30 31" fill="none" xmlns="http://www.w3.org/2000/svg">
<path d="M21.8551 24.9621L15.9527 21.6957C18.1465 19.9715 18.7422 16.5829 18.7422 14.683V10.7283C18.7422 8.10967 15.2595 5.19316 11.7613 5.19316C8.26396 5.19316 4.68886 8.11014 4.68886 10.7283V14.683C4.68886 16.4106 5.42054 19.9054 7.63679 21.6807L1.58201 24.962C1.58201 24.962 0 25.6663 0 26.5444V28.9176C0 29.791 0.709647 30.5 1.58201 30.5H21.8551C22.7284 30.5 23.438 29.791 23.438 28.9176V26.5444C23.438 25.6134 21.8551 24.962 21.8551 24.962L21.8551 24.9621ZM21.5631 28.6269H1.87503V26.9523C2.00956 26.8545 2.19752 26.7411 2.34565 26.6732C2.38968 26.6531 2.43374 26.632 2.47546 26.6081L8.53068 23.3273C9.08286 23.028 9.44894 22.4731 9.50472 21.8484C9.5605 21.2237 9.29942 20.6117 8.81005 20.2192C7.23788 18.96 6.5643 16.1709 6.5643 14.6831V10.7284C6.5643 9.38303 9.10301 7.06641 11.7617 7.06641C14.4696 7.06641 16.8677 9.35122 16.8677 10.7284V14.6831C16.8677 16.1503 16.4116 18.9516 14.794 20.223C14.5502 20.4148 14.3577 20.664 14.2339 20.9483C14.11 21.2326 14.0587 21.5432 14.0843 21.8522C14.1104 22.161 14.2127 22.4586 14.382 22.7183C14.5514 22.978 14.7824 23.1917 15.0546 23.3404L20.957 26.6067C21.0091 26.6353 21.0752 26.6662 21.13 26.6901C21.2683 26.7486 21.4384 26.8465 21.5631 26.9327V28.6269V28.6269ZM28.4166 20.2984L22.4266 17.032C24.6203 15.3078 25.3042 11.9193 25.3042 10.0194V6.06468C25.3042 3.44601 21.7338 0.5 18.2355 0.5C15.9621 0.5 13.6377 1.73488 12.2848 3.31632C13.0564 3.36406 13.9072 3.36502 14.6422 3.59917C15.6298 2.8307 16.8795 2.37365 18.2356 2.37365C20.9435 2.37365 23.4292 4.68744 23.4292 6.06518V10.0199C23.4292 11.487 22.8854 14.2883 21.2678 15.5597C21.024 15.7516 20.8315 16.0008 20.7077 16.2851C20.5838 16.5694 20.5325 16.8799 20.5581 17.1889C20.5843 17.4977 20.6865 17.7953 20.8559 18.055C21.0252 18.3147 21.2563 18.5284 21.5284 18.6771L27.5185 21.9434C27.5706 21.972 27.6367 22.0029 27.6915 22.0268C27.8298 22.0853 27.9999 22.1832 28.1246 22.2694V23.9351H24.34C24.9114 24.3659 25.0843 24.9822 25.3061 25.8082H28.4171C29.2904 25.8082 30 25.0992 30 24.2259V21.8816C29.9996 20.9497 28.4166 20.2983 28.4166 20.2983L28.4166 20.2984Z" fill="white"/>
</svg>
